<?xml version="1.0" encoding="UTF-8"?>
<!DOCTYPE svg PUBLIC "-//W3C//DTD SVG 1.1//EN" "http://www.w3.org/Graphics/SVG/1.1/DTD/svg11.dtd">
<!-- Creator: CorelDRAW -->
<svg xmlns="http://www.w3.org/2000/svg" xml:space="preserve" width="3.52778E+006px" height="1.016E+006px" version="1.1" style="shape-rendering:geometricPrecision; text-rendering:geometricPrecision; image-rendering:optimizeQuality; fill-rule:evenodd; clip-rule:evenodd"
viewBox="0 0 874209.2 251366.67"
 xmlns:xlink="http://www.w3.org/1999/xlink"
 xmlns:xodm="http://www.corel.com/coreldraw/odm/2003">
 <defs>
  <style type="text/css">
   <![CDATA[
    .fil1 {fill:white}
    .fil0 {fill:white;fill-rule:nonzero}
   ]]>
  </style>
 </defs>
 <g id="Ebene_x0020_1">
  <metadata id="CorelCorpID_0Corel-Layer"/>
  <path class="fil0" d="M0 249964.24l0 -87030.12 17019.09 0 52759.44 46377.6 -8696.94 0 52379.44 -46377.6 17019.09 0 0 87030.12 -18719.52 0 0 -72544.77 6616.94 1286.17 -52379.44 45559.49 -1511.31 0 -51815.09 -45559.49 5860.86 -1286.17 0 72544.77 -18532.56 0zm156607.81 0l0 -87030.12 49734.66 0c9327.23,0 17523.14,1092.27 24582.98,3272.03 7059.84,2179.77 12572.37,5296.51 16544.53,9346.32 3971.73,4049.37 5960.2,8798.87 5960.2,14250.67 0,5451.8 -1988.47,10181.79 -5960.2,14192.56 -3972.16,4010.76 -9453.02,7127.94 -16449.96,9346.31 -6999.54,2218.37 -15224.53,3330.16 -24677.55,3330.16l-31201.67 0 0 33292.07 -18532.99 0zm18532.99 -43805.7l31766.02 0c5674.77,0 10591.28,-663.69 14749.97,-1985.86 4163.02,-1325.21 7379.53,-3233.43 9643.89,-5725.52 2272.16,-2492.52 3407.8,-5371.98 3407.8,-8644.02 0,-3349.68 -1135.64,-6248.66 -3407.8,-8702.14 -2264.36,-2453.48 -5480.87,-4342.61 -9643.89,-5667.39 -4158.69,-1322.18 -9075.2,-1985.87 -14749.97,-1985.87l-31766.02 0 0 32710.8zm159591.81 45208.13c-9959.25,0 -19128.58,-1109.19 -27515.79,-3330.17 -8382.45,-2218.8 -15694.32,-5355.06 -21935.6,-9404.44 -6236.52,-4049.81 -11058.46,-8798.88 -14461.5,-14250.68 -3407.81,-5451.8 -5110.41,-11409.82 -5110.41,-17874.07 0,-6541.9 1702.6,-12538.54 5110.41,-17990.34 3403.04,-5449.19 8193.31,-10201.3 14366.93,-14250.67 6180.99,-4049.38 13492.86,-7183.47 21935.6,-9404.45 8450.12,-2218.37 17651.11,-3327.55 27610.36,-3327.55 9707.23,0 18438.44,1051.05 26193.2,3153.17 7750.42,2102.12 14306.63,4829.32 19663.87,8176.4 5357.23,3349.68 9171.93,6931.87 11441.49,10748.74l-21257.6 -58.13c-4027.68,-3838.99 -5887.75,-4839.29 -11080.58,-6892.83 -6934.04,-2998.31 -15253.15,-4497.47 -24960.38,-4497.47 -9833.02,0 -18564.22,1441.03 -26191.02,4320.49 -7624.19,2882.06 -13584.82,6892.83 -17869.3,12032.3 -4284.06,5141.65 -6429.99,11138.71 -6429.99,17990.34 0,6776.57 2145.93,12734.6 6429.99,17874.07 4284.48,5139.05 10245.11,9149.81 17869.3,12031.88 7626.8,2882.49 16358,4323.52 26191.02,4323.52 9707.23,0 18026.34,-1499.15 24960.38,-4497.9 6282.5,-2853 7321.84,-3572.22 11170.38,-6972.65l21167.8 21.69c-2269.56,3814.7 -6084.26,7399.05 -11441.49,10746.13 -5357.24,3349.68 -11913.45,6074.28 -19663.87,8179 -7754.76,2102.56 -16485.97,3153.62 -26193.2,3153.62zm74469.91 -1402.43l0 -87030.12 18532.99 0 0 38785.08 70534.18 0 0 -38785.08 18721.69 0 0 87030.12 -18721.69 0 0 -37731.42 -70534.18 0 0 37731.42 -18532.99 0zm122482.87 0l50487.71 -87030.12 21935.6 0 50490.31 87030.12 -19855.17 0 -13657.26 -24432.46 -55798.96 -131 -13749.66 24563.46 -19852.57 0zm39562.42 -35319.14l44304.55 58.13 -25059.71 -43474.29 5296.94 0 -24541.78 43416.16zm144750.32 36721.57c-8951.57,0 -17145.32,-1031.98 -24582.99,-3095.49 -7435.49,-2063.51 -13739.68,-4887.45 -18910.39,-8469.63 -4781.16,-3504.55 -7663.23,-6081.23 -10317.55,-10520.57l19595.77 -14.75c3834.21,4790.71 5359.83,5061.83 10860.22,7321.41 6747.51,2998.75 14654.96,4497.91 23732.76,4497.91 5545.93,0 10399.55,-545.27 14560.4,-1634.94 4163.47,-1090.1 7409.04,-2627.86 9738.89,-4613.73 2332.46,-1986.29 3499.77,-4304 3499.77,-6950.95 0,-3659.84 -1668.76,-6561.42 -5011.07,-8702.15 -3342.31,-2143.33 -8227.59,-3758.74 -14657.57,-4848.84l-25902.99 -4906.96c-10213.01,-1947.26 -18031.11,-5022.79 -23449.07,-9227.46 -5422.74,-4206.84 -8133.02,-9033.99 -8133.02,-14485.79 0,-4751.67 1860.07,-8936.82 5580.2,-12557.62 3717.53,-3620.8 8883.9,-6464.25 15505.18,-8527.76 6619.11,-2063.52 14149.17,-3095.05 22594.52,-3095.05 8450.12,0 16105.97,932.2 22979.28,2801.81 6868.98,1870.04 12698.6,4381.65 17488.88,7534.83 4790.71,3155.78 8804.08,7517.91 11068.44,11567.29l-18700 118.42c-3666.78,-4468.41 -5226.24,-5415.36 -11276.66,-7946.06 -6049.99,-2531.13 -13172.72,-3797.78 -21368.64,-3797.78 -5044.91,0 -9486.86,525.75 -13332.79,1576.81 -3841.16,1051.06 -6805.64,2569.74 -8888.68,4555.6 -2077.82,1985.86 -3119.34,4342.61 -3119.34,7067.21 0,3194.39 1637.1,6035.68 4919.12,8527.77 3278.97,2492.09 8256.21,4400.74 14938.22,5725.51l23636.04 4320.49c11094.89,2104.72 19477.34,5103.04 25151.67,8995.39 5672.6,3894.51 8510.85,8723.83 8510.85,14485.35 0,4752.11 -1988.47,8956.78 -5958.03,12616.18 -3971.73,3662.01 -9452.59,6524.55 -16452.13,8588.06 -6996.94,2063.51 -15098.3,3095.49 -24299.29,3095.49zm66496.95 -1402.43l0 -87030.12 91714.12 0 0 10513.62 -73181.56 0 0 27568.73 58695.77 0 128.4 10514.06 -58824.17 0 0 27920.08 73181.56 0 0 10513.63 -91714.12 0z"/>
  <path class="fil1" d="M437896.47 68163.98c-1600.66,-2831.31 -3210.43,-5668.26 -4799.82,-8477.01 -12434.42,21310.08 -26183.21,44839.41 -38098.83,65268.04l21564.28 0c9059.15,-15525.57 19064.82,-32581.53 27188.73,-46452.22 -1909.52,-3372.67 -3873.26,-6838.6 -5854.36,-10338.81zm92737.86 5373.29c-2907.65,-5231.87 -5894.26,-10421.24 -8860.91,-15621.87 -9002.76,-15771.96 -17786.89,-31677.53 -27089.82,-47270.77 -8455.76,-14176.5 -23936.21,-14125.75 -32794.09,-246.82 -753.91,1176.42 -1473.56,2372.36 -2173.69,3582.62 -1867.44,3227.79 -3955.68,6821.69 -6219.6,10710.13 3034.76,5450.07 6780.92,12172.86 10569.59,18957.67 4607.22,-7904.41 9257.39,-15860.01 14006.46,-24002.58 1204.61,1749.02 2074.35,2834.35 2751.49,4027.69 10490.2,18373.8 20994.72,36741.95 31386.02,55172.58 1654.89,2933.25 3105.46,6062.13 4080.18,9270.4 1896.07,6220.9 -271.99,11472.72 -5083.52,15488.7 -5001.53,4169.1 -10427.74,4579.89 -16659.05,2139.86 -5259.2,-2063.52 -10994.69,-10840.71 -13034.78,-13487.66 -504.49,-1147.79 -41629.4,-74564.03 -42170.77,-75844.99 -3335.36,-7933.05 -7903.11,-15057.96 -17579.97,-16081.25 -9447.39,-1000.31 -15180.28,4251.08 -19589.26,11934.7 -13536.24,23597.43 -49668.72,87558.48 -64151.48,112689.33l21634.99 0c6865.94,-12606.64 34519.68,-61770.87 40240.86,-71616.47 6455.14,-11101.41 12989.67,-22152.06 19938.02,-33984.82 3669.38,6218.29 46083.93,81213.07 51513.18,90545.94 0,0 18515.21,27148.39 47378.77,11282.73 16568.39,-9097.32 21507.46,-30347.98 11907.38,-47645.12z"/>
 </g>
</svg>
