<?xml version="1.0" encoding="UTF-8"?>
<!DOCTYPE svg PUBLIC "-//W3C//DTD SVG 1.1//EN" "http://www.w3.org/Graphics/SVG/1.1/DTD/svg11.dtd">
<!-- Creator: CorelDRAW -->
<svg xmlns="http://www.w3.org/2000/svg" xml:space="preserve" width="1000px" height="330px" version="1.1" shape-rendering="geometricPrecision" text-rendering="geometricPrecision" image-rendering="optimizeQuality" fill-rule="evenodd" clip-rule="evenodd"
viewBox="0 0 759.513 250.351"
 xmlns:xlink="http://www.w3.org/1999/xlink"
 xmlns:xodm="http://www.corel.com/coreldraw/odm/2003">
 <defs>
    <linearGradient id="id0" gradientUnits="userSpaceOnUse" x1="352.369" y1="23.02" x2="440.692" y2="109.516">
     <stop offset="0" stop-opacity="1" stop-color="#0026FF"/>
     <stop offset="0.819608" stop-opacity="1" stop-color="#0088FF"/>
     <stop offset="1" stop-opacity="1" stop-color="#00EAFF"/>
    </linearGradient>
 </defs>
 <g id="Ebene_x0020_1">
  <metadata id="CorelCorpID_0Corel-Layer"/>
  <g id="_105553585306464">
   <path fill="url(#id0)" d="M378.6 57.65l10.668 18.84 -6.077 10.371c-5.688,9.707 -11.799,20.132 -20.298,34.699l-0.564 0.97 -24.99 0 39.593 -67.829 1.668 2.949zm85.81 1.142c2.19,3.832 4.385,7.673 6.803,12.023l0.083 0.149c4.733,8.618 5.868,18.217 3.769,26.8 -2.114,8.641 -7.5,16.266 -15.788,20.864l-0.131 0.076c-28.951,15.913 -47.459,-11.23 -47.512,-11.306l-0.093 -0.138c-2.491,-4.287 -13.546,-23.765 -24.537,-43.136 -9.41,-16.585 -18.777,-33.094 -22.704,-39.943l-4.103 6.976c-4.352,7.398 -8.567,14.559 -13.125,22.401 -2.761,4.753 -11.128,19.551 -19.488,34.427 -7.896,14.05 -15.678,27.978 -18.697,33.522l-0.556 1.023 -25.057 0 1.681 -2.92c7.407,-12.851 21.448,-37.587 34.642,-60.83 10.736,-18.912 20.942,-36.892 26.259,-46.16 2.221,-3.875 4.816,-7.164 8.108,-9.396 3.372,-2.291 7.401,-3.429 12.381,-2.903 5.113,0.54 8.886,2.698 11.815,5.767 2.818,2.954 4.806,6.727 6.469,10.682 0.226,0.537 11.331,20.433 21.763,39.125 8.732,15.648 17,30.463 18.139,32.602l0.994 1.351c2.348,3.218 6.714,9.218 10.435,10.677 2.662,1.043 5.126,1.48 7.417,1.217 2.241,-0.258 4.379,-1.202 6.445,-2.923 2.072,-1.737 3.554,-3.718 4.271,-5.902 0.667,-2.033 0.689,-4.292 -0.058,-6.751 -0.435,-1.436 -0.987,-2.87 -1.61,-4.269 -0.616,-1.382 -1.333,-2.774 -2.103,-4.143 -9.096,-16.132 -17.915,-31.577 -26.729,-47.01l-3.063 -5.365c-0.208,-0.367 -0.464,-0.755 -0.763,-1.185l-13.491 23.118 -12.238 -21.951c2.832,-4.871 5.606,-9.809 8.568,-14.599 2.328,-3.638 5.117,-6.361 8.119,-8.15 2.973,-1.773 6.169,-2.647 9.354,-2.61 3.194,0.035 6.366,0.982 9.281,2.844 2.887,1.843 5.528,4.58 7.69,8.203 6.146,10.301 12.173,20.967 18.198,31.624l9.162 16.119z"/>
   <path fill="white" fill-rule="nonzero" d="M0 247.739l0 -90.631 16.405 0 41.418 43.209 41.121 -43.209 16.407 0 0 91.802 -18.552 0 0 -65.618 -37.973 39.201 -2.297 0 -38.137 -39.798 0 66.215 -18.392 0 0 -1.171zm58.87 -42.958l-1.038 -1.084 -1.032 1.084 2.07 0zm40.269 -30.144l0 2.881 2.282 -2.355 -2.282 -0.526zm-84.776 0.481l1.688 1.761 0 -2.199 -1.688 0.438zm121.278 72.621l0 -90.631 44.247 0c4.079,0 7.937,0.287 11.56,0.859 3.631,0.573 7.011,1.434 10.133,2.578 3.139,1.148 5.946,2.553 8.412,4.208 2.485,1.664 4.626,3.585 6.418,5.754 1.808,2.19 3.17,4.571 4.073,7.138 0.903,2.575 1.358,5.327 1.358,8.252 0,2.934 -0.455,5.682 -1.36,8.24 -0.905,2.56 -2.267,4.932 -4.077,7.1 -1.799,2.152 -3.931,4.058 -6.382,5.713 -2.444,1.648 -5.233,3.063 -8.351,4.237 -3.099,1.165 -6.477,2.043 -10.123,2.627 -3.634,0.58 -7.527,0.874 -11.661,0.874l-25.854 0 0 34.222 -18.393 0 0 -1.171zm18.393 -46.2l26.345 0c2.41,0 4.644,-0.164 6.694,-0.492 2.047,-0.325 3.938,-0.818 5.669,-1.471 1.705,-0.645 3.222,-1.432 4.532,-2.355 1.292,-0.913 2.396,-1.963 3.301,-3.147 0.907,-1.174 1.587,-2.443 2.037,-3.798 0.448,-1.351 0.674,-2.813 0.674,-4.379 0,-3.18 -0.903,-5.924 -2.702,-8.228 -0.91,-1.172 -2.014,-2.21 -3.304,-3.109 -1.303,-0.909 -2.822,-1.692 -4.538,-2.341 -1.731,-0.652 -3.622,-1.146 -5.669,-1.471 -2.05,-0.328 -4.284,-0.492 -6.694,-0.492l-26.345 0 0 31.283zm137.057 48.812c-8.74,0 -16.8,-1.161 -24.182,-3.478 -3.701,-1.163 -7.16,-2.564 -10.374,-4.198 -3.22,-1.639 -6.217,-3.528 -8.989,-5.66 -2.765,-2.131 -5.22,-4.451 -7.358,-6.951 -2.147,-2.508 -3.979,-5.205 -5.488,-8.078 -1.515,-2.875 -2.656,-5.901 -3.417,-9.066 -0.765,-3.161 -1.147,-6.449 -1.147,-9.851 0,-3.438 0.382,-6.753 1.145,-9.936 0.761,-3.185 1.902,-6.221 3.419,-9.101 1.511,-2.874 3.336,-5.57 5.463,-8.073 2.121,-2.499 4.556,-4.818 7.296,-6.952 2.735,-2.131 5.723,-4.02 8.95,-5.66 3.216,-1.635 6.693,-3.04 10.417,-4.203 3.723,-1.157 7.61,-2.029 11.652,-2.608 4.044,-0.576 8.252,-0.868 12.613,-0.868 4.252,0 8.303,0.277 12.14,0.824 3.837,0.548 7.474,1.377 10.902,2.477 3.409,1.097 6.565,2.361 9.451,3.786 2.899,1.428 5.539,3.028 7.918,4.794 2.381,1.766 4.429,3.603 6.132,5.503 1.721,1.919 3.1,3.909 4.127,5.961l0.849 1.694 -20.828 -0.069 -0.349 -0.392c-1.681,-1.9 -2.906,-3.097 -4.233,-4.057 -1.331,-0.962 -2.809,-1.723 -4.984,-2.744l-0.037 -0.019c-2.905,-1.489 -6.117,-2.613 -9.619,-3.361 -3.515,-0.75 -7.341,-1.128 -11.469,-1.128 -8.355,0 -15.764,1.447 -22.211,4.335 -3.215,1.441 -6.075,3.166 -8.574,5.162 -2.483,1.983 -4.628,4.259 -6.424,6.814 -1.78,2.534 -3.118,5.288 -4.008,8.248 -0.894,2.971 -1.344,6.163 -1.344,9.573 0,3.376 0.446,6.537 1.338,9.479 0.898,2.945 2.236,5.689 4.014,8.222 1.796,2.554 3.941,4.83 6.424,6.814 2.499,1.996 5.361,3.719 8.574,5.16 3.212,1.441 6.675,2.527 10.374,3.251 3.705,0.725 7.653,1.09 11.837,1.09 4.128,0 7.954,-0.378 11.469,-1.128 3.493,-0.749 6.696,-1.867 9.597,-3.353 2.671,-1.439 4.222,-2.337 5.479,-3.279 1.257,-0.943 2.284,-1.97 3.9,-3.667l0.347 -0.364 20.723 0.026 -0.845 1.687c-1.027,2.051 -2.406,4.042 -4.127,5.96 -1.703,1.9 -3.753,3.738 -6.132,5.502 -2.378,1.764 -5.019,3.363 -7.912,4.792 -2.89,1.426 -6.046,2.691 -9.457,3.789 -3.427,1.102 -7.063,1.93 -10.902,2.477 -3.839,0.549 -7.888,0.824 -12.14,0.824zm63.328 -2.612l0 -90.631 18.394 0 0 39.868 58.75 0 0 -39.868 18.556 0 0 91.802 -18.556 0 0 -38.786 -58.75 0 0 38.786 -18.394 0 0 -1.171zm106.209 -0.512l44.052 -90.119 20.449 0c14.921,30.617 29.898,61.212 44.875,91.802l-19.806 0 -10.454 -22.196 -49.645 -0.043 -10.489 22.239 -19.804 0 0.822 -1.683zm35.485 -33.994l37.774 -0.051 -18.969 -38.963 -18.805 39.014zm18.368 -45.258l0.43 0.881 0.423 -0.881 -0.853 0zm106.831 82.376c-3.932,0 -7.703,-0.271 -11.306,-0.807 -3.616,-0.54 -7.068,-1.351 -10.351,-2.433 -3.286,-1.084 -6.325,-2.367 -9.108,-3.847 -2.785,-1.48 -5.338,-3.171 -7.645,-5.07l-0.022 -0.018c-2.116,-1.84 -3.819,-3.443 -5.288,-5.176 -1.486,-1.751 -2.737,-3.629 -3.928,-5.997l-0.849 -1.692 19.488 -0.017 0.345 0.515c2.825,4.189 4.117,4.81 7.652,6.508l1.329 0.639c2.831,1.493 5.913,2.615 9.234,3.362 3.331,0.748 6.925,1.124 10.777,1.124 4.69,0 8.78,-0.544 12.263,-1.625 1.722,-0.533 3.252,-1.178 4.59,-1.93 1.306,-0.734 2.431,-1.578 3.363,-2.52 0.902,-0.91 1.582,-1.898 2.03,-2.952 0.44,-1.038 0.661,-2.164 0.661,-3.371 0,-1.703 -0.322,-3.224 -0.967,-4.551 -0.64,-1.323 -1.611,-2.482 -2.905,-3.465 -1.366,-1.036 -3.056,-1.952 -5.067,-2.74 -2.062,-0.808 -4.449,-1.486 -7.155,-2.03l-22.461 -5.048c-4.499,-1.017 -8.486,-2.337 -11.951,-3.955 -3.496,-1.633 -6.463,-3.572 -8.894,-5.811 -2.461,-2.264 -4.311,-4.708 -5.55,-7.327 -1.25,-2.639 -1.874,-5.45 -1.874,-8.422 0,-5.172 1.708,-9.73 5.12,-13.672 1.681,-1.941 3.69,-3.677 6.017,-5.196 2.304,-1.508 4.94,-2.811 7.894,-3.904 2.931,-1.083 6.068,-1.9 9.406,-2.442 3.339,-0.54 6.863,-0.813 10.566,-0.813 3.706,0 7.254,0.246 10.627,0.732 3.375,0.489 6.587,1.228 9.632,2.208 3.028,0.979 5.837,2.131 8.423,3.452 2.591,1.324 4.954,2.822 7.085,4.484 2.101,1.643 4.034,3.589 5.689,5.644 1.742,2.158 3.194,4.456 4.238,6.67l0.779 1.65 -18.643 0.14 -0.352 -0.507c-1.524,-2.205 -2.602,-3.533 -3.888,-4.593 -1.298,-1.067 -2.892,-1.932 -5.432,-3.192 -2.531,-1.257 -5.295,-2.203 -8.281,-2.831 -2.995,-0.631 -6.235,-0.95 -9.713,-0.95 -4.25,0 -7.981,0.522 -11.186,1.56 -1.583,0.516 -2.98,1.141 -4.178,1.867 -1.183,0.722 -2.19,1.552 -3.008,2.479 -0.803,0.91 -1.408,1.907 -1.806,2.984 -0.398,1.069 -0.599,2.241 -0.599,3.509 0,1.465 0.317,2.849 0.945,4.147 0.642,1.318 1.619,2.573 2.927,3.75 1.329,1.2 3.019,2.267 5.061,3.196 2.083,0.948 4.54,1.757 7.36,2.419l20.454 4.438c4.883,1.1 9.17,2.436 12.863,4.003 3.727,1.581 6.866,3.411 9.411,5.481 2.586,2.109 4.536,4.483 5.839,7.114 1.308,2.645 1.966,5.543 1.966,8.681 0,2.581 -0.462,5.028 -1.376,7.332 -0.915,2.298 -2.282,4.444 -4.088,6.423 -1.799,1.959 -3.93,3.709 -6.396,5.235 -2.449,1.518 -5.232,2.823 -8.336,3.909 -3.106,1.085 -6.447,1.904 -10.015,2.44 -3.565,0.538 -7.375,0.809 -11.416,0.809zm56.425 -2.612l0 -90.631 81.776 0 0 13.148 -63.383 0 0 25.999 50.822 0 0.137 13.147 -50.959 0 0 26.359 63.383 0 0 13.149 -81.776 0 0 -1.171z"/>
  </g>
 </g>
</svg>
