<?xml version="1.0" encoding="UTF-8"?>
<!DOCTYPE svg PUBLIC "-//W3C//DTD SVG 1.1//EN" "http://www.w3.org/Graphics/SVG/1.1/DTD/svg11.dtd">
<!-- Creator: CorelDRAW -->
<svg xmlns="http://www.w3.org/2000/svg" xml:space="preserve" width="32px" height="20px" version="1.1" style="shape-rendering:geometricPrecision; text-rendering:geometricPrecision; image-rendering:optimizeQuality; fill-rule:evenodd; clip-rule:evenodd"
viewBox="0 0 11.82 7.55"
 xmlns:xlink="http://www.w3.org/1999/xlink"
 xmlns:xodm="http://www.corel.com/coreldraw/odm/2003">
 <defs>
  <style type="text/css">
   <![CDATA[
    .fil0 {fill:url(#id0)}
   ]]>
  </style>
  <linearGradient id="id0" gradientUnits="userSpaceOnUse" x1="3.67" y1="2.13" x2="9.41" y2="8.01">
   <stop offset="0" style="stop-opacity:1; stop-color:#0026FF"/>
   <stop offset="0.619608" style="stop-opacity:1; stop-color:#3088FF"/>
   <stop offset="1" style="stop-opacity:1; stop-color:#61EAFF"/>
  </linearGradient>
 </defs>
 <g id="Ebene_x0020_1">
  <metadata id="CorelCorpID_0Corel-Layer"/>
  <path class="fil0" d="M5.98 4.08c-0.1,-0.17 -0.19,-0.34 -0.29,-0.51 -0.74,1.28 -1.57,2.69 -2.28,3.91l1.29 0c0.54,-0.93 1.14,-1.95 1.63,-2.78 -0.11,-0.2 -0.23,-0.41 -0.35,-0.62zm5.55 0.32c-0.17,-0.31 -0.35,-0.62 -0.53,-0.93 -0.54,-0.95 -1.06,-1.9 -1.62,-2.83 -0.51,-0.85 -1.43,-0.85 -1.96,-0.02 -0.05,0.07 -0.09,0.14 -0.13,0.22 -0.12,0.19 -0.24,0.41 -0.38,0.64 0.19,0.32 0.41,0.73 0.64,1.13 0.27,-0.47 0.55,-0.95 0.84,-1.43 0.07,0.1 0.12,0.17 0.16,0.24 0.63,1.1 1.26,2.2 1.88,3.3 0.1,0.18 0.18,0.36 0.24,0.56 0.12,0.37 -0.01,0.68 -0.3,0.92 -0.3,0.25 -0.63,0.28 -1,0.13 -0.31,-0.12 -0.66,-0.65 -0.78,-0.81 -0.03,-0.07 -2.49,-4.46 -2.52,-4.54 -0.2,-0.47 -0.48,-0.9 -1.06,-0.96 -0.56,-0.06 -0.91,0.25 -1.17,0.71 -0.81,1.42 -2.97,5.25 -3.84,6.75l1.3 0c0.41,-0.75 2.06,-3.7 2.4,-4.29 0.39,-0.66 0.78,-1.32 1.2,-2.03 0.22,0.37 2.76,4.86 3.08,5.42 0,0 1.11,1.63 2.84,0.68 0.99,-0.55 1.29,-1.82 0.71,-2.86z"/>
 </g>
</svg>
