<?xml version="1.0" encoding="UTF-8"?>
<!DOCTYPE svg PUBLIC "-//W3C//DTD SVG 1.1//EN" "http://www.w3.org/Graphics/SVG/1.1/DTD/svg11.dtd">
<!-- Creator: CorelDRAW -->
<svg xmlns="http://www.w3.org/2000/svg" xml:space="preserve" width="3.52778E+006px" height="1.16417E+006px" version="1.1" shape-rendering="geometricPrecision" text-rendering="geometricPrecision" image-rendering="optimizeQuality" fill-rule="evenodd" clip-rule="evenodd"
viewBox="0 0 2662151.64 877499.87"
 xmlns:xlink="http://www.w3.org/1999/xlink"
 xmlns:xodm="http://www.corel.com/coreldraw/odm/2003">
 <defs>
    <linearGradient id="id0" gradientUnits="userSpaceOnUse" x1="1235081.4" y1="80687.12" x2="1544657.66" y2="383861.37">
     <stop offset="0" stop-opacity="1" stop-color="#0026FF"/>
     <stop offset="0.819608" stop-opacity="1" stop-color="#0088FF"/>
     <stop offset="1" stop-opacity="1" stop-color="#00EAFF"/>
    </linearGradient>
 </defs>
 <g id="Ebene_x0020_1">
  <metadata id="CorelCorpID_0Corel-Layer"/>
  <g id="_105553379409728">
   <path fill="url(#id0)" d="M1327022.08 202066.64l37391.28 66035.53 -21299.08 36351.19c-19935.98,34025.55 -41357.8,70564.09 -71145.49,121625.01l-1976.8 3398.04 -87593.01 0 138776.68 -237745.99 5846.42 10336.22zm300771.09 4005.29c7674.64,13430.62 15368.66,26893.55 23844.36,42139.48l290.71 523.27c16589.63,30207.6 20569.08,63852 13210.98,93936.86 -7409.78,30285.12 -26286.3,57010.71 -55337.54,73128.76l-458.67 264.86c-101475.84,55776.83 -166348.54,-39361.62 -166535.88,-39626.48l-323.01 -484.51c-8734.11,-15026.28 -47482.01,-83297.02 -86003.81,-151193.06 -32985.46,-58134.78 -65815.88,-115998.23 -79582.44,-140004.1l-14380.26 24451.62c-15252.39,25930.99 -30026.72,51028.62 -46002.64,78516.51 -9677.29,16660.69 -39006.31,68529.14 -68309.5,120668.91 -27675.23,49245.63 -54949.93,98064.89 -65531.63,117496.98l-1950.96 3585.38 -87825.57 0 5891.64 -10232.86c25963.29,-45046.54 75176.62,-131748.05 121424.75,-213216.84 37630.3,-66287.47 73400.08,-129306.12 92037.58,-161794.15 7784.46,-13579.21 16880.34,-25110.55 28418.14,-32933.78 11822.05,-8029.95 25943.91,-12015.86 43399.21,-10174.72 17920.42,1892.82 31144.32,9457.65 41409.48,20213.77 9877.55,10355.6 16848.04,23579.51 22675.08,37442.96 794.6,1879.9 39716.93,71617.09 76281.31,137135.8 30608.13,54846.57 59588.3,106773.16 63580.67,114273.38l3482.01 4735.28c8230.22,11279.4 23534.29,32307.14 36577.3,37423.57 9328.44,3656.44 17965.65,5187.49 25995.6,4263.69 7855.52,-904.41 15349.28,-4212.01 22591.1,-10245.77 7261.19,-6085.45 12455.14,-13030.1 14968.14,-20685.36 2338.57,-7125.54 2416.09,-15045.66 -200.27,-23663.49 -1524.59,-5032.45 -3462.63,-10058.43 -5646.16,-14961.68 -2157.68,-4845.1 -4670.68,-9722.5 -7371.02,-14522.39 -31880.77,-56545.58 -62792.53,-110681.53 -93684.91,-164772.27l-10736.75 -18805.46c-729.99,-1285.56 -1627.95,-2648.65 -2674.5,-4153.86l-47288.2 81029.5 -42895.32 -76940.24c9929.24,-17074.14 19651.74,-34380.85 30033.18,-51170.75 8159.16,-12752.31 17933.35,-22293.93 28456.91,-28566.73 10420.2,-6214.65 21622.08,-9276.75 32785.2,-9147.55 11195.42,122.74 22313.31,3443.25 32533.25,9967.99 10116.58,6460.14 19373.95,16053.44 26951.69,28754.07 21544.56,36105.71 42669.21,73490.53 63787.4,110843.05l32113.35 56500.36z"/>
   <path fill="white" fill-rule="nonzero" d="M0 868345.85l0 -317670.8 57501.68 0 145172.22 151451.46 144132.13 -151451.46 57508.14 0 0 321772.99 -65027.74 0 0 -229993.82 -133098.22 137400.67 -8049.33 0 -133673.17 -139493.75 0 232086.9 -64465.71 0 0 -4102.19zm206343.25 -150572.88l-3637.05 -3798.56 -3617.68 3798.56 7254.73 0zm141147.55 -105655.55l0 10097.19 7997.65 -8256.05 -7997.65 -1841.14zm-297146.95 1686.09l5917.49 6169.43 0 -7706.94 -5917.49 1537.51zm425089.98 254542.34l0 -317670.8 155088.52 0c14296.28,0 27817.35,1007.78 40517.98,3010.42 12726.47,2009.1 24574.36,5025.99 35517.84,9037.73 11001.61,4024.67 20840.4,8947.29 29484.07,14748.5 8708.26,5833.5 16214.94,12564.97 22494.19,20168.55 6337.4,7674.64 11111.44,16021.14 14276.91,25020.11 3165.47,9024.81 4761.12,18669.8 4761.12,28922.04 0,10284.54 -1595.65,19916.6 -4767.58,28883.27 -3171.93,8973.13 -7945.97,17287.33 -14289.83,24884.45 -6305.09,7545.44 -13779.47,14225.22 -22371.45,20026.43 -8566.14,5775.36 -18340.33,10736.75 -29270.89,14851.85 -10859.49,4082.81 -22700.92,7157.84 -35479.07,9205.7 -12739.39,2034.94 -26383.2,3062.11 -40873.29,3062.11l-90622.81 0 0 119951.83 -64465.71 0 0 -4102.19zm64465.71 -161936.27l92341.2 0c8449.86,0 16279.55,-574.95 23463.22,-1724.85 7177.22,-1136.99 13805.32,-2868.3 19871.39,-5155.19 5975.62,-2261.05 11292.32,-5019.53 15885.48,-8256.06 4528.55,-3197.77 8398.17,-6880.04 11570.1,-11027.45 3178.39,-4115.11 5562.18,-8566.15 7138.45,-13314.35 1569.82,-4735.28 2364.41,-9858.17 2364.41,-15349.28 0,-11143.74 -3165.46,-20762.89 -9470.56,-28838.06 -3191.31,-4108.65 -7060.93,-7745.7 -11583.02,-10898.25 -4567.32,-3184.85 -9890.47,-5930.41 -15904.86,-8204.37 -6066.07,-2286.89 -12694.17,-4018.21 -19871.39,-5155.19 -7183.67,-1149.91 -15013.36,-1724.86 -23463.22,-1724.86l-92341.2 0 0 109647.91zm480395.21 171090.29c-30633.97,0 -58884.16,-4069.89 -84757.01,-12190.28 -12971.95,-4076.35 -25097.63,-8986.05 -36364.11,-14716.2 -11285.86,-5743.06 -21790.04,-12364.7 -31506.09,-19839.08 -9690.21,-7467.92 -18295.11,-15601.23 -25788.87,-24361.18 -7526.06,-8792.24 -13947.44,-18243.43 -19238.29,-28314.78 -5310.23,-10077.81 -9309.06,-20685.36 -11977.1,-31777.42 -2680.95,-11079.13 -4018.2,-22604.02 -4018.2,-34529.43 0,-12048.16 1337.25,-23669.95 4011.74,-34826.6 2668.04,-11163.12 6666.87,-21802.97 11983.56,-31900.16 5297.31,-10071.36 11692.85,-19522.54 19147.85,-28295.41 7435.62,-8759.94 15969.46,-16886.79 25575.68,-24367.63 9586.85,-7467.92 20058.73,-14089.56 31370.43,-19839.09 11272.94,-5730.14 23456.76,-10652.76 36512.7,-14729.11 13049.48,-4056.97 26673.91,-7112.61 40840.99,-9141.1 14173.54,-2022.02 28922.03,-3042.72 44206.72,-3042.72 14903.54,0 29102.92,969.02 42552.93,2887.68 13450,1918.66 26195.85,4825.72 38211.71,8682.43 11951.25,3843.78 23011.01,8275.43 33127.58,13269.12 10161.8,5006.61 19412.72,10614.01 27752.76,16802.82 8346.49,6188.81 15523.71,12629.57 21492.87,19289.97 6033.77,6725 10865.95,13701.95 14464.25,20892.08l2978.12 5936.87 -73006.01 -239.03 -1220.97 -1376.01c-5891.64,-6660.4 -10187.63,-10853.03 -14838.93,-14218.76 -4664.22,-3372.19 -9845.25,-6040.23 -17468.21,-9619.14l-129.21 -64.6c-10181.17,-5219.8 -21441.19,-9160.48 -33715.45,-11783.3 -12319.49,-2629.27 -25730.73,-3953.6 -40201.44,-3953.6 -29283.8,0 -55253.56,5071.21 -77851.12,15194.24 -11266.48,5051.83 -21292.61,11098.52 -30052.56,18094.85 -8701.8,6951.11 -16221.4,14929.38 -22513.58,23883.13 -6240.49,8882.69 -10930.55,18534.13 -14050.8,28909.11 -3133.16,10413.75 -4709.44,21602.7 -4709.44,33553.96 0,11834.97 1563.36,22914.11 4690.06,33224.49 3146.09,10323.3 7836.15,19942.44 14070.18,28818.67 6292.18,8953.75 13811.78,16932.02 22513.58,23883.13 8759.95,6996.33 18792.54,13036.56 30052.56,18088.38 11260.02,5051.83 23398.62,8856.85 36364.12,11395.69 12984.87,2538.83 26822.49,3817.94 41487,3817.94 14470.71,0 27881.95,-1324.33 40201.44,-3953.61 12241.96,-2622.81 23469.67,-6544.12 33637.93,-11750.99 9360.74,-5045.36 14800.18,-8191.45 19205.99,-11492.58 4405.81,-3307.59 8004.11,-6905.89 13669.65,-12855.68l1214.51 -1272.64 72637.78 90.44 -2965.2 5911.03c-3598.3,7190.13 -8430.48,14167.08 -14464.25,20892.08 -5969.16,6660.4 -13152.84,13101.16 -21492.87,19283.51 -8333.58,6182.35 -17590.96,11789.75 -27733.38,16796.36 -10129.49,5000.15 -21189.25,9431.8 -33146.96,13282.04 -12009.4,3863.16 -24755.25,6763.77 -38211.71,8682.43 -13456.47,1925.12 -27649.39,2887.68 -42552.93,2887.68zm221970.33 -9154.02l0 -317670.8 64472.17 0 0 139739.23 205923.34 0 0 -139739.23 65040.67 0 0 321772.99 -65040.67 0 0 -135947.13 -205923.34 0 0 135947.13 -64472.17 0 0 -4102.19zm372271.88 -1795.92l154403.75 -315874.88 71675.23 0c52301.27,107315.8 104796.35,214554.09 157291.43,321772.99l-69420.64 0 -36641.9 -77799.44 -174010.27 -148.58 -36764.64 77948.02 -69414.18 0 2881.22 -5898.11zm124377.03 -119150.77l132400.52 -180.89 -66487.73 -136567.31 -65912.79 136748.2zm64381.73 -158635.14l1505.22 3087.94 1485.83 -3087.94 -2991.05 0zm374448.96 288735.85c-13779.47,0 -26996.92,-949.64 -39626.49,-2829.54 -12674.79,-1892.82 -24774.62,-4735.28 -36280.13,-8527.38 -11518.42,-3798.56 -22171.19,-8294.82 -31926,-13482.31 -9761.27,-5187.49 -18708.56,-11117.9 -26796.65,-17771.84l-77.52 -64.6c-7416.24,-6447.22 -13385.41,-12067.54 -18534.13,-18140.07 -5206.88,-6137.13 -9593.31,-12720.01 -13766.56,-21021.29l-2978.12 -5930.4 68309.49 -58.14 1208.05 1802.38c9903.39,14683.89 14431.95,16860.95 26822.49,22810.74l4657.76 2241.67c9922.77,5232.71 20724.12,9166.93 32365.29,11783.29 11673.47,2622.82 24270.74,3940.68 37772.42,3940.68 16441.05,0 30776.1,-1905.74 42985.76,-5697.84 6033.77,-1866.98 11395.68,-4128.03 16085.74,-6763.76 4580.24,-2571.14 8520.92,-5529.88 11789.75,-8831.01 3159.01,-3191.31 5542.8,-6653.94 7112.61,-10349.14 1543.98,-3637.06 2319.19,-7584.2 2319.19,-11815.59 0,-5969.17 -1130.52,-11298.78 -3391.57,-15950.08 -2241.67,-4638.38 -5646.16,-8701.81 -10181.18,-12145.06 -4786.96,-3630.6 -10710.9,-6841.29 -17758.91,-9606.22 -7228.9,-2829.54 -15594.78,-5206.88 -25078.26,-7112.62l-78729.69 -17694.31c-15769.2,-3566 -29742.48,-8191.46 -41887.54,-13863.46 -12254.88,-5723.68 -22655.7,-12519.74 -31176.62,-20368.81 -8624.28,-7933.05 -15110.26,-16499.19 -19451.48,-25679.05 -4379.97,-9250.92 -6569.95,-19102.63 -6569.95,-29522.83 0,-18127.14 5988.54,-34103.06 17946.26,-47921.3 5891.64,-6802.52 12933.19,-12887.97 21092.35,-18211.13 8075.17,-5284.39 17313.17,-9851.71 27668.77,-13682.57 10271.61,-3798.56 21266.77,-6660.4 32966.08,-8559.68 11705.77,-1892.82 24057.55,-2848.92 37035.97,-2848.92 12991.33,0 25427.1,859.2 37249.15,2564.67 11828.51,1711.94 23088.53,4302.46 33760.68,7739.25 10614,3430.33 20459.25,7467.92 29522.83,12099.84 9082.95,4638.38 17364.85,9890.47 24832.77,15717.51 7364.55,5755.98 14141.24,12577.89 19942.44,19780.94 6104.83,7564.82 11195.42,15620.62 14851.86,23379.24l2732.64 5781.82 -65344.3 490.97 -1233.88 -1776.53c-5342.54,-7726.33 -9121.72,-12384.09 -13630.89,-16098.67 -4547.94,-3740.42 -10135.96,-6770.22 -19038.03,-11188.95 -8869.77,-4405.82 -18559.97,-7719.87 -29025.4,-9922.78 -10497.72,-2209.36 -21854.64,-3326.97 -34044.92,-3326.97 -14897.08,0 -27972.4,1828.22 -39206.58,5465.28 -5549.25,1808.84 -10446.04,3998.83 -14645.13,6544.12 -4147.41,2532.37 -7674.64,5439.44 -10542.94,8688.88 -2816.62,3191.31 -4935.55,6686.25 -6330.94,10458.97 -1395.39,3746.88 -2099.54,7855.52 -2099.54,12300.1 0,5135.81 1111.14,9987.37 3314.05,14535.31 2248.13,4619 5672,9018.35 10258.7,13146.38 4657.76,4205.55 10581.7,7945.97 17739.53,11201.88 7299.96,3320.51 15911.32,6156.51 25795.33,8475.7l71694.61 15556.01c17112.91,3856.7 32139.19,8540.3 45085.3,14031.42 13062.4,5542.8 24064.01,11957.71 32985.46,19212.45 9063.58,7390.39 15898.4,15711.05 20465.72,24936.13 4586.7,9270.3 6892.97,19425.63 6892.97,30427.25 0,9044.19 -1621.5,17623.25 -4825.73,25698.42 -3204.22,8055.79 -7997.65,15575.39 -14328.58,22513.58 -6305.1,6867.13 -13773.02,12997.8 -22416.68,18346.79 -8585.52,5323.16 -18340.33,9896.93 -29219.2,13701.96 -10885.33,3805.02 -22597.56,6673.32 -35104.39,8553.22 -12493.91,1886.36 -25847.01,2836 -40014.09,2836zm197777.11 -9154.02l0 -317670.8 286629.85 0 0 46086.62 -222164.14 0 0 91126.7 178138.3 0 478.05 46080.16 -178616.35 0 0 92392.89 222164.14 0 0 46086.62 -286629.85 0 0 -4102.19z"/>
  </g>
 </g>
</svg>
